<svg width="2400" height="2400" viewBox="0 0 2400 2400" version="1.1" xmlns="http://www.w3.org/2000/svg" xmlns:xlink="http://www.w3.org/1999/xlink">
<title>VIDO Icon</title>
<desc>Created using Figma</desc>
<g id="Canvas" transform="matrix(4 0 0 4 1132 1444)">
<clipPath id="clip-0" clip-rule="evenodd">
<path d="M -283 -361L 317 -361L 317 239L -283 239L -283 -361Z" fill="#FFFFFF"/>
</clipPath>
<g id="VIDO Icon" clip-path="url(#clip-0)">
<g id="Rectangle 2" filter="url(#filter0_d)">
<use xlink:href="#path0_fill" transform="translate(-265 -343)" fill="#FAFAFA"/>
<use xlink:href="#path0_fill" transform="translate(-265 -343)" fill="url(#paint1_linear)"/>
<mask id="mask0_outline_ins">
<use xlink:href="#path0_fill" fill="white" transform="translate(-265 -343)"/>
</mask>
<g mask="url(#mask0_outline_ins)">
<use xlink:href="#path1_stroke_2x" transform="translate(-265 -343)" fill="url(#paint2_linear)"/>
</g>
</g>
<g id="Polygon" filter="url(#filter1_d)">
<use xlink:href="#path2_fill" transform="matrix(-1 -8.74228e-08 8.74228e-08 -1 202 150)" fill="#2657C6"/>
</g>
<g id="Rectangle">
<use xlink:href="#path3_fill" transform="matrix(1 -1.22482e-16 1.22448e-16 1 -78 -300)" fill="#FFFFFF"/>
<use xlink:href="#path3_fill" transform="matrix(1 -1.22482e-16 1.22448e-16 1 -78 -300)" fill="url(#paint5_linear)"/>
</g>
</g>
</g>
<defs>
<filter id="filter0_d" filterUnits="userSpaceOnUse" x="-272" y="-343" width="578" height="578" color-interpolation-filters="sRGB">
<feFlood flood-opacity="0" result="BackgroundImageFix"/>
<feColorMatrix in="SourceAlpha" type="matrix" values="0 0 0 0 0 0 0 0 0 0 0 0 0 0 0 0 0 0 255 0"/>
<feOffset dx="0" dy="7"/>
<feGaussianBlur stdDeviation="3.5"/>
<feColorMatrix type="matrix" values="0 0 0 0 0 0 0 0 0 0 0 0 0 0 0 0 0 0 0.25 0"/>
<feBlend mode="normal" in2="BackgroundImageFix" result="effect1_dropShadow"/>
<feBlend mode="normal" in="SourceGraphic" in2="effect1_dropShadow" result="shape"/>
</filter>
<filter id="filter1_d" filterUnits="userSpaceOnUse" x="-145" y="-87" width="323" height="245" color-interpolation-filters="sRGB">
<feFlood flood-opacity="0" result="BackgroundImageFix"/>
<feColorMatrix in="SourceAlpha" type="matrix" values="0 0 0 0 0 0 0 0 0 0 0 0 0 0 0 0 0 0 255 0"/>
<feOffset dx="0" dy="7"/>
<feGaussianBlur stdDeviation="3.5"/>
<feColorMatrix type="matrix" values="0 0 0 0 0 0 0 0 0 0 0 0 0 0 0 0 0 0 0.25 0"/>
<feBlend mode="normal" in2="BackgroundImageFix" result="effect1_dropShadow"/>
<feBlend mode="normal" in="SourceGraphic" in2="effect1_dropShadow" result="shape"/>
</filter>
<linearGradient id="paint1_linear" x1="0" y1="0" x2="1" y2="0" gradientUnits="userSpaceOnUse" gradientTransform="matrix(3.4535e-14 564 -564 3.4535e-14 564 -3.4535e-14)">
<stop offset="0" stop-color="#FFFFFF"/>
<stop offset="1" stop-color="#E9E9E9"/>
</linearGradient>
<linearGradient id="paint2_linear" x1="0" y1="0" x2="1" y2="0" gradientUnits="userSpaceOnUse" gradientTransform="matrix(3.4535e-14 564 -564 3.4535e-14 564 -3.4535e-14)">
<stop offset="0" stop-color="#E3E3E3"/>
<stop offset="1" stop-color="#919191"/>
</linearGradient>
<linearGradient id="paint5_linear" x1="0" y1="0" x2="1" y2="0" gradientUnits="userSpaceOnUse" gradientTransform="matrix(1.15117e-14 216 -188 1.32262e-14 188 -1.32262e-14)">
<stop offset="0" stop-color="#FFFFFF" stop-opacity="0"/>
<stop offset="0.20442" stop-color="#4279F6" stop-opacity="0.497238"/>
<stop offset="0.685083" stop-color="#2A62E1"/>
<stop offset="1" stop-color="#2657C6"/>
</linearGradient>
<path id="path0_fill" d="M 0 20C 0 8.9543 8.9543 0 20 0L 544 0C 555.046 0 564 8.9543 564 20L 564 544C 564 555.046 555.046 564 544 564L 20 564C 8.9543 564 0 555.046 0 544L 0 20Z"/>
<path id="path1_stroke_2x" d="M 20 1L 544 1L 544 -1L 20 -1L 20 1ZM 563 20L 563 544L 565 544L 565 20L 563 20ZM 544 563L 20 563L 20 565L 544 565L 544 563ZM 1 544L 1 20L -1 20L -1 544L 1 544ZM 20 -1C 8.40202 -1 -1 8.40202 -1 20L 1 20C 1 9.50659 9.50659 1 20 1L 20 -1ZM 544 1C 554.493 1 563 9.50659 563 20L 565 20C 565 8.40202 555.598 -1 544 -1L 544 1ZM 563 544C 563 554.493 554.493 563 544 563L 544 565C 555.598 565 565 555.598 565 544L 563 544ZM 20 563C 9.50659 563 1 554.493 1 544L -1 544C -1 555.598 8.40202 565 20 565L 20 563Z"/>
<path id="path2_fill" d="M 178.886 9.71893C 182.061 5.05332 188.939 5.05332 192.114 9.71893L 337.641 223.568C 341.255 228.879 337.451 236.069 331.027 236.069L 39.973 236.069C 33.5489 236.069 29.745 228.879 33.3592 223.568L 178.886 9.71893Z"/>
<path id="path3_fill" d="M 0 0L 188 0L 188 216L 0 216L 0 0Z"/>
</defs>
</svg>
